<svg xmlns="http://www.w3.org/2000/svg" xmlns:xlink="http://www.w3.org/1999/xlink" width="180.768" height="470.233" viewBox="0 0 180.768 470.233">
  <defs>
    <linearGradient id="linear-gradient" x1="0.5" x2="0.5" y2="1" gradientUnits="objectBoundingBox">
      <stop offset="0" stop-color="#205072"/>
      <stop offset="1" stop-color="#102839"/>
    </linearGradient>
    <linearGradient id="linear-gradient-2" x1="1.143" y1="0.881" x2="0.122" y2="0.072" gradientUnits="objectBoundingBox">
      <stop offset="0" stop-color="#fe514a"/>
      <stop offset="0.005" stop-color="#254f3d"/>
      <stop offset="1" stop-color="#56c596"/>
    </linearGradient>
  </defs>
  <g id="Group_3413" data-name="Group 3413" transform="translate(-869.616 -133.267)">
    <path id="Path_795" data-name="Path 795" d="M274.735,165.277s.971,8.371,8.566-2.434C283.3,162.843,281.523,152,274.735,165.277Z" transform="translate(753.971 36.652)" fill="#f5ac90"/>
    <path id="Path_796" data-name="Path 796" d="M281.707,154.444s-10.855,4.351-10.564,9.864c0,0,.363,3.012,2,3.954.488.282.813-.009,1.241-.45.093-.093.5.4.845.45a1.026,1.026,0,0,0,1.04-.628c1.455.626,3.238-1.4,2.861-1.808-.617-.666.475-.231.658-.283Z" transform="translate(751.908 34.227)" fill="#ffb396"/>
    <path id="Path_797" data-name="Path 797" d="M272.82,158.2a5.225,5.225,0,0,0-.925,6.541s.954,2.25,2.532.974" transform="translate(751.908 36.381)" fill="none" stroke="#f5a98c" stroke-miterlimit="10" stroke-width="0.305"/>
    <path id="Path_798" data-name="Path 798" d="M279.316,155.11s-13.782,5.738-4.816,12.561a1.025,1.025,0,0,0,1.578-.419" transform="translate(752.098 34.609)" fill="none" stroke="#f5a98c" stroke-miterlimit="10" stroke-width="0.305"/>
    <path id="Path_799" data-name="Path 799" d="M280.821,154.444s-14.479,6.535-5.861,12.925c0,0,2.227,1.463,3.887-1.748" transform="translate(752.53 34.227)" fill="none" stroke="#f5a98c" stroke-miterlimit="10" stroke-width="0.305"/>
    <path id="Path_800" data-name="Path 800" d="M243.512,121.518s-74.1,37.792-15.581,80.077c0,0,13.766,10.017,33.27.006,0,0,51.437-35.889-3.979-80.084Z" transform="translate(714.224 15.344)" fill="#100840"/>
    <path id="Path_801" data-name="Path 801" d="M237.531,381.815l11.189,13.666-5.5,7.277-18.62-16.1Z" transform="translate(725.222 164.618)" fill="#ffb396"/>
    <path id="Path_802" data-name="Path 802" d="M221.662,435.06c4.569,3.5,19.244-18.413,30.56-30.189,9.449-9.831.448-13.9-4.122-17.4-3.427-2.628-.669,11.438-12.036,4.467-2.242-1.377-5.024,6.256-5.6,10.191C227.277,423.864,217.094,431.556,221.662,435.06Z" transform="translate(722.87 167.67)" fill="url(#linear-gradient)"/>
    <path id="Path_803" data-name="Path 803" d="M255.722,392.142c0,.006-19.771,28.832-34.956,39.951-1.078.79,3.984,2.244,7.3-1.009,6.5-6.373,11.327-12.555,17.42-19.31,3.583-3.973,14.117-15.219,13.505-16.954C258.739,394.112,256.6,390.962,255.722,392.142Z" transform="translate(722.937 170.391)" fill="#fff"/>
    <path id="Path_804" data-name="Path 804" d="M237.219,398.882l-.782,20.194,10.249-.328,2.526-21.358Z" transform="translate(732.008 173.55)" fill="#ffb396"/>
    <path id="Path_805" data-name="Path 805" d="M228.7,156.932l-7.782,34.758s11.073,19.229,27.419-.217l-6.015-34.541Z" transform="translate(723.108 35.654)" fill="#ffb396"/>
    <path id="Path_806" data-name="Path 806" d="M268.765,151.693c0,21.4-12.677,42.9-28.321,42.9s-28.319-21.5-28.319-42.9c0-16.026,12.679-29.016,28.319-29.016S268.765,135.668,268.765,151.693Z" transform="translate(718.066 16.009)" fill="#ffb99e"/>
    <path id="Path_807" data-name="Path 807" d="M254.232,216.972l-.014-.013-.014.065Z" transform="translate(742.197 70.078)" fill="#f2bbaf"/>
    <path id="Path_808" data-name="Path 808" d="M254.222,216.974l.017.011C254.247,216.941,254.236,216.952,254.222,216.974Z" transform="translate(742.208 70.075)" fill="#f2bbaf"/>
    <path id="Path_809" data-name="Path 809" d="M344.687,172.876c.354,12.449-8.443,29.278-9.269,41.853-11.5-8.747-20.63-20.435-34.958-29.048-5.071-3.048-22.844-4.853-22.844-4.853l-35.891.518c-21.259.165-28.963,14.811-40.4,24.021-7.834,6.306-14.6,11.809-21.4,18.879-11.8,12.267-4.986,18.4,3.942,27.319,9.277,9.273,39.6,25.2,39.6,25.2s5.4-2.92,5.9-3.476c-15.43-11.707-22.137-21.321-33.891-34.041,3.221-3.3,23.863-19.961,32.626-29.808-1.92,6.484,7.386,35.145,7.386,35.145,8.009,13.522,4.444,23.675-4.469,35.557,8.467,15.56,74.2,1.381,68.624-6.98-1.972-4.365-9.136-15.055-6.854-26.746,6.407-22.049,2.92-28.442,2.7-38.165,12.476,10.1,41.463,29.3,49.314,28.222,6.347.3,12.773-42.429,7.866-60.779C352.662,175.7,347.332,170.909,344.687,172.876Z" transform="translate(695.988 44.525)" fill="#ffb396"/>
    <path id="Path_810" data-name="Path 810" d="M211.979,212.856c1.421,4.931,2.59,8.533,2.59,8.533,8.009,13.522,4.443,23.675-4.469,35.557,8.467,15.56,74.2,1.382,68.624-6.98-1.972-4.365-9.136-15.055-6.854-26.746.686-2.362,1.237-4.511,1.714-6.536C253.113,216.75,232.333,216.324,211.979,212.856Z" transform="translate(716.904 67.725)" fill="#f5a98c"/>
    <path id="Path_811" data-name="Path 811" d="M304.907,257.543c-8.409-13.194-13.453-21.1-13.453-21.1-49.017,21.237-68.624,6.98-68.624,6.98-9.112,25.558-37.372,147.968-34.757,158.561,2.42,9.792,12.7,30.079,61.9,71.73l10.67-6.195c-3.18-4.116-37.776-59.707-38.926-69.025-1.234-10,33.3-87.647,36.642-98.531-2.831,9.216-2.831,53.058,3.893,105.766,1.625,12.733,2.661,92,2.661,92l11.567-3.216s12.478-49.377,16.756-88.78C295.976,396.548,314.178,272.088,304.907,257.543Z" transform="translate(704.175 81.25)" fill="url(#linear-gradient-2)"/>
    <path id="Path_812" data-name="Path 812" d="M273.068,243.16c7.627-25.836,2.766-36.734,2.7-38.165.345.282-6.2-16.7-4.683-25.489-2.2-.43-4.453-.795-6.456-1.087-20.63,48.858-37.878,17.961-42.618-.334,0,0-5.424.458-6.211.507,0,10.564-5.322,20.331-7.416,27.591,0,0-3.1,19.831,8.642,37.583C231.563,250.159,251.625,246.066,273.068,243.16Z" transform="translate(715.707 47.785)" fill="url(#linear-gradient)"/>
    <line id="Line_392" data-name="Line 392" y2="5.347" transform="translate(959.979 312.788)" fill="none" stroke="#c78f84" stroke-miterlimit="10" stroke-width="1.221"/>
    <path id="Path_816" data-name="Path 816" d="M289.589,422.165c-.5,5.721-26.48,1.921-42.751,2.417-13.582.415-10.519-8.966-10.018-14.687.376-4.292,8.859,7.153,11.384-5.915.5-2.581,7.982.467,11.261,2.672C277.583,418.833,290.09,416.443,289.589,422.165Z" transform="translate(731.857 176.764)" fill="url(#linear-gradient)"/>
    <path id="Path_817" data-name="Path 817" d="M237.047,414.14s34.5,4.654,52.884.856c1.308-.271-1.031,4.445-5.652,4.724-9.054.548-16.849-.017-25.915-.027-5.329-.006-20.686.266-21.547-1.345C236.466,417.686,235.593,414,237.047,414.14Z" transform="translate(731.893 183.154)" fill="#fff"/>
    <path id="Path_818" data-name="Path 818" d="M252.235,122.049s-11.795,28.837-41.305,53.709C210.93,175.758,206.874,104.443,252.235,122.049Z" transform="translate(717.327 14.046)" fill="#190b60"/>
    <path id="Path_819" data-name="Path 819" d="M231.216,120.172a126.92,126.92,0,0,0,34.222,38.59S253.989,112.1,231.216,120.172Z" transform="translate(729.014 14.034)" fill="#190b60"/>
    <path id="Path_820" data-name="Path 820" d="M217.727,147.722s-2.16,30.09,15.581,51.113c0,0-58.06-26.222-4.481-76.949Z" transform="translate(714.624 15.555)" fill="#190b60"/>
    <path id="Path_821" data-name="Path 821" d="M252.973,147.943s2.423,31.482-15.581,51.113c0,0,58.209-27.857,5.244-77.555Z" transform="translate(732.556 15.335)" fill="#190b60"/>
    <path id="Path_822" data-name="Path 822" d="M257.35,146.36c0,4.366-3.237,10.662-7.229,10.662s-7.227-6.3-7.227-10.662,3.235-7.905,7.227-7.905S257.35,141.994,257.35,146.36Z" transform="translate(735.711 25.057)" fill="#ffb79c"/>
    <g id="Group_2051" data-name="Group 2051" transform="translate(916.421 311.076)">
      <path id="Path_823" data-name="Path 823" d="M203.374,232.859l8.931,6.119,3.776-1.218a25.62,25.62,0,0,1,2.335-4.451s1.5-3.454,5.082,2.039c0,0,3.652,5.949.645,4.385,0,0,6.572,4.821,1.975,5.035,0,0,2.389,4.7-6.986-1.326a36.365,36.365,0,0,0-4.414-1.687s12.272,6.851,5.29,5.551c0,0-1.451-.42-5.515-1.827,0,0-3.812,2.409-4.941,1.031,0,0-2.168-2.535-5.4-7.214Z" transform="translate(-203.374 -232.237)" fill="#ffb396"/>
      <path id="Path_824" data-name="Path 824" d="M220.608,239.858l-5.477-4.588s-1.644-1.577-2.244-.406" transform="translate(-197.919 -230.979)" fill="none" stroke="#f5a98c" stroke-miterlimit="10" stroke-width="0.305"/>
      <path id="Path_825" data-name="Path 825" d="M223.55,244.074s-11.231-7.852-11.845-7.833" transform="translate(-198.596 -229.941)" fill="none" stroke="#f5a98c" stroke-miterlimit="10" stroke-width="0.305"/>
      <path id="Path_826" data-name="Path 826" d="M214.54,240.14s-3.227-1.613-4.535-2.121" transform="translate(-199.571 -228.921)" fill="none" stroke="#f5a98c" stroke-miterlimit="10" stroke-width="0.305"/>
    </g>
    <path id="Path_827" data-name="Path 827" d="M214.29,232.632s-3.219,4.9-3.219,6.912" transform="translate(717.461 79.066)" fill="none" stroke="#f5a98c" stroke-miterlimit="10" stroke-width="0.305"/>
    <path id="Path_828" data-name="Path 828" d="M296.413,188.608s-2.071-20.284-3.407-21.945c-8.936-14.478-12.482-12.169-12.482-12.169s-9.6,5.476-7.479,9.655a4.229,4.229,0,0,0,4.742,2.039,4.111,4.111,0,0,0,2.395-2.412s-2.481,9.372,7.911,8.336c0,0,1.328,1.035-1.323,20.649Z" transform="translate(752.827 34.177)" fill="#ffb396"/>
    <path id="Path_829" data-name="Path 829" d="M277.86,163.764c.946,1.891,2.994,3.443,7.3,2.953" transform="translate(755.763 39.572)" fill="none" stroke="#f5a98c" stroke-miterlimit="10" stroke-width="0.305"/>
    <path id="Path_830" data-name="Path 830" d="M275.106,158.986s2.688-2.85,5.606,2.311" transform="translate(754.184 36.381)" fill="none" stroke="#f5a98c" stroke-miterlimit="10" stroke-width="0.305"/>
    <path id="Path_831" data-name="Path 831" d="M280.543,154.444s-10.616,6.144-7.137,10.1c3.244,3.691,5.88.587,5.88.587,2.636-3.23.261-4.546.261-4.546-2.579-1.076-1.221,3.369-1.221,3.369" transform="translate(752.808 34.227)" fill="none" stroke="#f5a98c" stroke-miterlimit="10" stroke-width="0.305"/>
  </g>
</svg>
