<svg id="Group_3960" data-name="Group 3960" xmlns="http://www.w3.org/2000/svg" xmlns:xlink="http://www.w3.org/1999/xlink" width="47.092" height="187.116" viewBox="0 0 47.092 187.116">
  <defs>
    <linearGradient id="linear-gradient" x1="0.5" y1="0.317" x2="0.5" y2="1" gradientUnits="objectBoundingBox">
      <stop offset="0" stop-color="#fff"/>
      <stop offset="0.391" stop-color="#fff"/>
      <stop offset="0.549" stop-color="#f9f9f9"/>
      <stop offset="1"/>
    </linearGradient>
  </defs>
  <g id="Rectangle_156" data-name="Rectangle 156" stroke="#56c596" stroke-width="1" fill="url(#linear-gradient)">
    <rect width="47.092" height="187.116" rx="23.546" stroke="none"/>
    <rect x="0.5" y="0.5" width="46.092" height="186.116" rx="23.046" fill="none"/>
  </g>
  <g id="morning-rain-svgrepo-com" transform="translate(12.518 30.331)">
    <g id="Group_766" data-name="Group 766" transform="translate(0 0)">
      <path id="Path_639" data-name="Path 639" d="M12.2,6.66a4.212,4.212,0,0,0-1.685-1.732,8.745,8.745,0,0,0-2.541-.593,6,6,0,0,0-2.755.783A6.834,6.834,0,0,0,3.182,7.274a4.127,4.127,0,0,0-.371,2.567A6.834,6.834,0,0,0,3.6,11.668a4.94,4.94,0,0,0,.847,1.021h1.1a2.84,2.84,0,0,1,.95-1.946,6.386,6.386,0,0,1,2.669-.9l2.37-1.59L12.2,6.66Z" transform="translate(0.013 -4.16)" fill="#f6ff00" stroke="#e6ff00" stroke-width="0.1"/>
      <path id="Path_610" data-name="Path 610" d="M19.473,8.453A4.1,4.1,0,0,0,15.25,4.688,4.366,4.366,0,0,0,12,6.1,5.546,5.546,0,0,0,7.645,4.078,5.256,5.256,0,0,0,2.2,9.111a4.772,4.772,0,0,0,1.509,3.46,4.258,4.258,0,0,0-3.1,1.854A3.752,3.752,0,0,0,2.033,19.8a.389.389,0,0,0,.191.05.375.375,0,0,0,.315-.163.326.326,0,0,0-.123-.467,3.1,3.1,0,0,1-1.172-4.44A3.608,3.608,0,0,1,5.1,13.328a2.7,2.7,0,0,0,.937,1.286.387.387,0,0,0,.234.078.379.379,0,0,0,.284-.124.323.323,0,0,0-.05-.479,2.013,2.013,0,0,1-.731-1.06.332.332,0,0,0-.013-.046.018.018,0,0,0,0,0l-.006-.024a1.913,1.913,0,0,1-.037-.686c0-.01,0-.02,0-.03a1.806,1.806,0,0,1,.036-.183c0-.017.009-.034.014-.051q.022-.079.051-.156c.007-.02.015-.04.023-.06.02-.048.042-.1.066-.142.01-.02.02-.041.032-.061.026-.047.055-.092.085-.137.012-.018.022-.036.035-.054a2.06,2.06,0,0,1,.141-.178,2.166,2.166,0,0,1,.414-.354c.026-.018.051-.039.078-.056l.018-.01a2.334,2.334,0,0,1,1.508-.3,2.508,2.508,0,0,0,0,1.251.364.364,0,0,0,.358.262A.4.4,0,0,0,8.665,12a.341.341,0,0,0,.274-.409,1.881,1.881,0,0,1,.073-1.162l.024-.056a1.941,1.941,0,0,1,.107-.212l.017-.029c.026-.044.057-.085.086-.127a2.066,2.066,0,0,1,.213-.258c.022-.022.047-.042.07-.063a2.151,2.151,0,0,1,.211-.172c.031-.022.06-.045.092-.065a2.228,2.228,0,0,1,.3-.16c.029-.013.06-.024.09-.036a2.185,2.185,0,0,1,.737-.163h.005a2.436,2.436,0,0,1,.388.013l.111.012a2.316,2.316,0,0,1,.787.276,2.043,2.043,0,0,1,.987,1.268.37.37,0,0,0,.443.253.34.34,0,0,0,.274-.409,2.726,2.726,0,0,0-1.316-1.691,3.077,3.077,0,0,0-.872-.333c0-.1.009-.191.022-.285,0-.032.01-.063.015-.094a3.073,3.073,0,0,1,.085-.362c0-.013.007-.025.01-.037a3.027,3.027,0,0,1,.164-.41l.008-.015a3.21,3.21,0,0,1,.22-.377c.013-.019.024-.038.037-.056l.033-.049a3.579,3.579,0,0,1,2.89-1.417,3.386,3.386,0,0,1,3.487,3.087,2.807,2.807,0,0,0-2.567,2.7.369.369,0,0,0,.736,0,2.214,2.214,0,0,1,4.415,0,.369.369,0,0,0,.736,0A2.809,2.809,0,0,0,19.473,8.453ZM7.644,4.758A4.777,4.777,0,0,1,11.555,6.7a3.732,3.732,0,0,0-.364.8c-.008.027-.015.055-.023.082-.031.105-.057.211-.079.32-.009.047-.016.094-.023.141-.014.089-.025.179-.032.27,0,.028-.008.056-.01.084-.1,0-.2.009-.3.02h-.011c-.1.012-.2.028-.3.05s-.2.049-.3.081l-.047.017c-.082.028-.164.059-.242.093L9.8,8.677q-.125.056-.244.123l-.019.012q-.122.07-.236.151l-.017.012q-.111.081-.214.171l-.024.021q-.1.086-.182.18l-.033.037q-.078.088-.149.182l-.039.052c-.017.024-.036.046-.052.07-.027.04-.049.082-.074.123-.007.011-.015.021-.021.033-.022,0-.045,0-.067-.008-.06-.01-.12-.016-.18-.022-.079-.009-.158-.016-.237-.018-.063,0-.124,0-.186,0s-.153.006-.228.014-.124.014-.185.024-.149.027-.222.045-.12.029-.178.046c-.074.022-.145.048-.217.076-.056.021-.111.042-.166.066-.073.033-.143.071-.214.11-.049.027-.1.051-.145.081-.076.048-.147.1-.219.156-.037.028-.076.053-.112.083a2.873,2.873,0,0,0-.3.286c-.06.067-.115.136-.167.208-.019.026-.035.053-.054.08-.031.046-.062.091-.09.138s-.038.069-.056.1-.044.081-.063.123-.034.078-.05.118-.031.077-.045.116-.028.085-.041.129-.021.074-.031.112-.021.092-.029.137S5,12.117,5,12.153s-.013.1-.017.147c0,.032,0,.064-.005.1,0,.054,0,.108,0,.162,0,.006,0,.013,0,.019q-.1-.016-.2-.028A4.2,4.2,0,0,1,2.938,9.111,4.545,4.545,0,0,1,7.644,4.758Z" transform="translate(0 -4.078)" fill="#5677c5"/>
    </g>
  </g>
  <g id="sunrise-svgrepo-com" transform="translate(8.89 83.565)">
    <g id="Group_755" data-name="Group 755" transform="translate(0)">
      <path id="Path_611" data-name="Path 611" d="M104.023,94.06a6.588,6.588,0,1,0,7.1,6.568A6.859,6.859,0,0,0,104.023,94.06Z" transform="translate(-89.367 -87.281)" fill="#fff700"/>
      <path id="Path_612" data-name="Path 612" d="M182.382,5.668a.462.462,0,0,0,.479-.443V.443a.481.481,0,0,0-.958,0V5.225A.462.462,0,0,0,182.382,5.668Z" transform="translate(-167.727)" fill="#fff700"/>
      <path id="Path_613" data-name="Path 613" d="M182.382,297.454a.462.462,0,0,0-.479.443v4.782a.481.481,0,0,0,.958,0V297.9A.462.462,0,0,0,182.382,297.454Z" transform="translate(-167.727 -276.017)" fill="#fff700"/>
      <path id="Path_614" data-name="Path 614" d="M57.064,57.41a.507.507,0,0,0,.678,0,.419.419,0,0,0,0-.627L54.084,53.4a.507.507,0,0,0-.678,0,.419.419,0,0,0,0,.627Z" transform="translate(-49.115 -49.433)" fill="#fff700"/>
      <path id="Path_615" data-name="Path 615" d="M264.429,263.74a.507.507,0,0,0-.678,0,.42.42,0,0,0,0,.627l3.657,3.381a.507.507,0,0,0,.678,0,.42.42,0,0,0,0-.627Z" transform="translate(-243.067 -244.613)" fill="#fff700"/>
      <path id="Path_616" data-name="Path 616" d="M6.131,182.353a.462.462,0,0,0-.479-.443H.48a.444.444,0,1,0,0,.886H5.651A.463.463,0,0,0,6.131,182.353Z" transform="translate(-0.001 -168.8)" fill="#fff700"/>
      <path id="Path_617" data-name="Path 617" d="M303.1,181.909h-5.171a.444.444,0,1,0,0,.886H303.1a.444.444,0,1,0,0-.886Z" transform="translate(-274.272 -168.799)" fill="#fff700"/>
      <path id="Path_618" data-name="Path 618" d="M57.076,263.74l-3.657,3.382a.419.419,0,0,0,0,.627.507.507,0,0,0,.678,0l3.657-3.382a.419.419,0,0,0,0-.627A.507.507,0,0,0,57.076,263.74Z" transform="translate(-49.126 -244.613)" fill="#fff700"/>
      <path id="Path_619" data-name="Path 619" d="M264.091,57.54a.5.5,0,0,0,.339-.13l3.657-3.381a.42.42,0,0,0,0-.627.507.507,0,0,0-.678,0l-3.657,3.382a.42.42,0,0,0,0,.627A.5.5,0,0,0,264.091,57.54Z" transform="translate(-243.067 -49.433)" fill="#fff700"/>
    </g>
  </g>
  <g id="moon-svgrepo-com" transform="translate(10.35 145.448)">
    <g id="Group_757" data-name="Group 757" transform="translate(0)">
      <g id="Group_756" data-name="Group 756">
        <path id="Path_620" data-name="Path 620" d="M53.237,43.518a9.031,9.031,0,0,0-3.066-1.993.491.491,0,0,0-.5.081.407.407,0,0,0-.122.453,7.155,7.155,0,0,1-2.14,7.974,8.657,8.657,0,0,1-8.752,1.418.493.493,0,0,0-.5.081.407.407,0,0,0-.122.453,8.229,8.229,0,0,0,1.936,2.967,9.339,9.339,0,0,0,6.313,2.661q.163.005.324.005a9.412,9.412,0,0,0,6.174-2.252,8.07,8.07,0,0,0,2.877-5.838A7.98,7.98,0,0,0,53.237,43.518Zm1.505,5.98a7.248,7.248,0,0,1-2.583,5.242,8.613,8.613,0,0,1-11.5-.371,7.51,7.51,0,0,1-1.345-1.794,9.618,9.618,0,0,0,8.734-1.915,8.006,8.006,0,0,0,2.675-7.924A8.018,8.018,0,0,1,52.56,44.1,7.165,7.165,0,0,1,54.742,49.5Z" transform="translate(-33.301 -36.512)" fill="#fff"/>
        <path id="Path_621" data-name="Path 621" d="M162.31,162.838a.49.49,0,0,0-.654,0,.405.405,0,0,0,0,.605l.982.908a.489.489,0,0,0,.654,0,.405.405,0,0,0,0-.605Z" transform="translate(-140.775 -143.184)" fill="#fff"/>
        <path id="Path_622" data-name="Path 622" d="M162.637,29.34l-.982.908a.405.405,0,0,0,0,.605.49.49,0,0,0,.654,0l.982-.908a.405.405,0,0,0,0-.605A.49.49,0,0,0,162.637,29.34Z" transform="translate(-140.775 -25.708)" fill="#fff"/>
        <path id="Path_623" data-name="Path 623" d="M100.208,188.793a.446.446,0,0,0-.463.428V190.5a.464.464,0,0,0,.926,0v-1.284A.446.446,0,0,0,100.208,188.793Z" transform="translate(-87.018 -166.134)" fill="#fff"/>
        <path id="Path_624" data-name="Path 624" d="M188.959,99.745h-1.388a.429.429,0,1,0,0,.856h1.388a.429.429,0,1,0,0-.856Z" transform="translate(-163.042 -87.774)" fill="#fff"/>
        <path id="Path_625" data-name="Path 625" d="M31.524,30.853a.49.49,0,0,0,.654,0,.405.405,0,0,0,0-.605L31.2,29.34a.49.49,0,0,0-.654,0,.405.405,0,0,0,0,.605Z" transform="translate(-26.679 -25.708)" fill="#fff"/>
        <path id="Path_626" data-name="Path 626" d="M31.524,162.838l-.982.908a.405.405,0,0,0,0,.605.489.489,0,0,0,.654,0l.982-.908a.405.405,0,0,0,0-.605A.49.49,0,0,0,31.524,162.838Z" transform="translate(-26.679 -143.184)" fill="#fff"/>
        <path id="Path_627" data-name="Path 627" d="M100.208,2.14a.446.446,0,0,0,.463-.428V.428a.464.464,0,0,0-.926,0V1.712A.446.446,0,0,0,100.208,2.14Z" transform="translate(-87.018)" fill="#fff"/>
        <path id="Path_628" data-name="Path 628" d="M3.536,99.745H2.148a.429.429,0,1,0,0,.856H3.536a.429.429,0,1,0,0-.856Z" transform="translate(-1.685 -87.774)" fill="#fff"/>
      </g>
    </g>
  </g>
</svg>
