<svg xmlns="http://www.w3.org/2000/svg" width="20" height="20" viewBox="0 0 20 20">
  <path id="drug" d="M56,40.952a4.249,4.249,0,0,0-2.751-1.283l-.027,0-11.894-.011a4.062,4.062,0,1,0,0,8.119h0L53.2,47.763l.054,0A4.249,4.249,0,0,0,56,46.478a3.956,3.956,0,0,0,0-5.526Zm-8.754,5.439-5.919.006a2.683,2.683,0,1,1,0-5.363l5.919.006v5.352Zm-8.262-8.032a4.339,4.339,0,0,0,2.48.783h0a4.343,4.343,0,0,0,.9-.1l.027-.006,11.386-3.322a4,4,0,0,0,1.262-7.161,4.322,4.322,0,0,0-3.7-.608L39.989,31.285l-.051.017a4.138,4.138,0,0,0-2.247,2,3.918,3.918,0,0,0-.246,2.959A4.03,4.03,0,0,0,38.985,38.359Zm12.771-9.091a2.871,2.871,0,0,1,.807-.116,2.786,2.786,0,0,1,2.656,1.9A2.67,2.67,0,0,1,53.368,34.4L47.7,36.053l-1.608-5.122Z" transform="translate(-37.126 -27.774)" fill="#205072"/>
</svg>
